<?xml version="1.0" standalone="no"?>
<!DOCTYPE svg PUBLIC "-//W3C//DTD SVG 20010904//EN"
 "http://www.w3.org/TR/2001/REC-SVG-20010904/DTD/svg10.dtd">
<svg version="1.0" xmlns="http://www.w3.org/2000/svg"
 width="1024.000000pt" height="1024.000000pt" viewBox="0 0 1024.000000 1024.000000"
 preserveAspectRatio="xMidYMid meet">
<metadata>
Created by potrace 1.14, written by Peter Selinger 2001-2017
</metadata>
<g transform="translate(0.000000,1024.000000) scale(0.100000,-0.100000)"
fill="#000000" stroke="none">
<path d="M6575 6655 c-426 -68 -772 -261 -1024 -569 -187 -229 -320 -535 -346
-797 l-7 -67 93 -47 c117 -59 168 -94 242 -163 l57 -55 0 66 c0 220 86 479
231 694 69 101 202 239 292 301 95 65 250 142 362 180 399 133 868 48 1226
-223 62 -47 79 -55 116 -55 89 0 143 51 143 135 0 43 -6 62 -39 111 -50 78
-188 209 -280 269 -152 99 -341 173 -531 211 -118 23 -416 28 -535 9z"/>
<path d="M2555 4070 c-178 -5 -191 -8 -237 -57 -35 -37 -48 -73 -48 -137 0
-70 42 -135 108 -168 l47 -23 2700 -3 c2111 -2 2710 0 2744 9 84 23 151 112
151 200 0 47 -49 127 -93 153 l-42 24 -2580 4 c-1419 1 -2656 1 -2750 -2z"/>
<path d="M2735 3311 c-55 -25 -85 -61 -101 -120 -24 -93 13 -175 104 -228 l47
-28 2353 3 c2134 2 2356 4 2392 18 78 32 141 139 126 216 -10 50 -47 110 -85
135 l-34 23 -2381 0 c-2293 0 -2382 -1 -2421 -19z"/>
<path d="M3845 2575 c-78 -27 -148 -141 -131 -212 13 -53 56 -112 99 -137 l42
-25 1286 -3 1287 -2 48 30 c109 67 127 207 40 302 -55 61 40 57 -1356 59
-1077 2 -1281 0 -1315 -12z"/>
</g>
</svg>
